<?xml version="1.0" encoding="UTF-8" standalone="no"?>
<!-- Created with Inkscape (http://www.inkscape.org/) -->

<svg
   xmlns:dc="http://purl.org/dc/elements/1.1/"
   xmlns:cc="http://creativecommons.org/ns#"
   xmlns:rdf="http://www.w3.org/1999/02/22-rdf-syntax-ns#"
   xmlns:svg="http://www.w3.org/2000/svg"
   xmlns="http://www.w3.org/2000/svg"
   xmlns:sodipodi="http://sodipodi.sourceforge.net/DTD/sodipodi-0.dtd"
   xmlns:inkscape="http://www.inkscape.org/namespaces/inkscape"
   width="91.3452mm"
   height="24.883175mm"
   viewBox="0 0 91.3452 24.883175"
   version="1.1"
   id="svg8"
   inkscape:version="0.92.1 r15371"
   sodipodi:docname="PP_dark_themed.svg">
  <defs
     id="defs2"><style
   id="style4493"
   type="text/css">
   <![CDATA[
    .fil0 {fill:#668A2A;fill-rule:nonzero}
    .fil1 {fill:#8CB035;fill-rule:nonzero}
    .fil2 {fill:#A2C858;fill-rule:nonzero}
    .fil3 {fill:#D1DE85;fill-rule:nonzero}
   ]]>
  </style>

  
  
  
  
 
   
   
  
   
  
   
   
   
   
   
  
    
   
    
   
    
   
    
   
    
   
    
   
    
   </defs>
  <sodipodi:namedview
     id="base"
     pagecolor="#ffffff"
     bordercolor="#666666"
     borderopacity="1.0"
     inkscape:pageopacity="0.0"
     inkscape:pageshadow="2"
     inkscape:zoom="2.8"
     inkscape:cx="152.95451"
     inkscape:cy="9.1044469"
     inkscape:document-units="mm"
     inkscape:current-layer="layer1"
     showgrid="false"
     inkscape:window-width="1920"
     inkscape:window-height="1017"
     inkscape:window-x="-8"
     inkscape:window-y="-8"
     inkscape:window-maximized="1"
     showguides="true"
     inkscape:guide-bbox="true">
    <sodipodi:guide
       position="35.813244,8.9769345"
       orientation="0,1"
       id="guide4648"
       inkscape:locked="false" />
    <sodipodi:guide
       position="23.252877,15.053083"
       orientation="0,1"
       id="guide4650"
       inkscape:locked="false" />
  </sodipodi:namedview>
  <metadata
     id="metadata5">
    <rdf:RDF>
      <cc:Work
         rdf:about="">
        <dc:format>image/svg+xml</dc:format>
        <dc:type
           rdf:resource="http://purl.org/dc/dcmitype/StillImage" />
        <dc:title></dc:title>
      </cc:Work>
    </rdf:RDF>
  </metadata>
  <g
     inkscape:label="Ebene 1"
     inkscape:groupmode="layer"
     id="layer1"
     transform="translate(-23.996598,-14.285802)">
    <g
       aria-label="PerfectPattern"
       transform="matrix(0.26458333,0,0,0.26458333,-32.033482,-106.49479)"
       style="font-style:normal;font-weight:normal;font-size:40px;line-height:1.25;font-family:sans-serif;letter-spacing:0px;word-spacing:0px;fill:#e6e6e6;fill-opacity:1;stroke:none"
       id="flowRoot4485">
      <path
         d="m 340.05859,499.98735 q 0,2.12891 -0.66406,3.76953 -0.66406,1.64063 -1.93359,2.77344 -1.26953,1.11328 -3.125,1.69922 Q 332.5,508.81548 330,508.81548 h -2.10938 v 8.0664 q 0,0.19532 -0.13671,0.35157 -0.11719,0.15625 -0.41016,0.2539 -0.29297,0.0977 -0.78125,0.15625 -0.48828,0.0586 -1.25,0.0586 -0.74219,0 -1.25,-0.0586 -0.48828,-0.0586 -0.78125,-0.15625 -0.29297,-0.0977 -0.41016,-0.2539 -0.11718,-0.15625 -0.11718,-0.35157 v -22.73437 q 0,-0.91797 0.46875,-1.36719 0.48828,-0.46875 1.26953,-0.46875 h 5.95703 q 0.89844,0 1.69922,0.0781 0.82031,0.0586 1.95312,0.29297 1.13281,0.21484 2.28516,0.82031 1.17187,0.60547 1.99219,1.54297 0.82031,0.91797 1.25,2.16797 0.42968,1.23046 0.42968,2.77343 z m -5.37109,0.3711 q 0,-1.32813 -0.46875,-2.1875 -0.46875,-0.85938 -1.15234,-1.26953 -0.6836,-0.41016 -1.44532,-0.50782 -0.74218,-0.11718 -1.54297,-0.11718 h -2.1875 v 8.57421 h 2.30469 q 1.23047,0 2.05078,-0.33203 0.83985,-0.33203 1.36719,-0.91797 0.52734,-0.60546 0.80078,-1.42578 0.27344,-0.83984 0.27344,-1.8164 z"
         style="font-style:normal;font-variant:normal;font-weight:bold;font-stretch:normal;font-family:Calibri;-inkscape-font-specification:'Calibri Bold';fill:#e6e6e6"
         id="path4621"
         inkscape:connector-curvature="0" />
      <path
         d="m 359.25781,507.7022 q 0,0.89843 -0.41015,1.32812 -0.39063,0.42969 -1.09375,0.42969 h -10.60547 q 0,1.11328 0.2539,2.03125 0.27344,0.89844 0.83985,1.54297 0.58593,0.625 1.48437,0.95703 0.91797,0.33203 2.1875,0.33203 1.28906,0 2.26563,-0.17578 0.97656,-0.19531 1.67968,-0.41016 0.72266,-0.23437 1.19141,-0.41015 0.46875,-0.19532 0.76172,-0.19532 0.17578,0 0.29297,0.0781 0.11719,0.0586 0.19531,0.23437 0.0781,0.17579 0.0977,0.50782 0.0391,0.3125 0.0391,0.80078 0,0.42969 -0.0195,0.74219 -0.0195,0.29296 -0.0586,0.50781 -0.0391,0.21484 -0.11718,0.37109 -0.0781,0.13672 -0.21485,0.27344 -0.11718,0.13672 -0.68359,0.37109 -0.56641,0.23438 -1.44531,0.46875 -0.87891,0.21485 -2.01172,0.3711 -1.13281,0.17578 -2.42188,0.17578 -2.32422,0 -4.08203,-0.58594 -1.73828,-0.58594 -2.91015,-1.77734 -1.17188,-1.19141 -1.75782,-3.00782 -0.5664,-1.8164 -0.5664,-4.25781 0,-2.32422 0.60547,-4.17969 0.60546,-1.875 1.75781,-3.16406 1.15234,-1.30859 2.79297,-1.99219 1.66015,-0.68359 3.73047,-0.68359 2.1875,0 3.73046,0.64453 1.5625,0.64453 2.5586,1.79688 0.99609,1.13281 1.46484,2.69531 0.46875,1.5625 0.46875,3.39844 z m -4.76562,-1.40625 q 0.0586,-2.07032 -0.83985,-3.24219 -0.8789,-1.19141 -2.73437,-1.19141 -0.9375,0 -1.64063,0.35157 -0.68359,0.35156 -1.15234,0.95703 -0.44922,0.58593 -0.70313,1.40625 -0.23437,0.80078 -0.27343,1.71875 z"
         style="font-style:normal;font-variant:normal;font-weight:bold;font-stretch:normal;font-family:Calibri;-inkscape-font-specification:'Calibri Bold';fill:#e6e6e6"
         id="path4623"
         inkscape:connector-curvature="0" />
      <path
         d="m 374.51172,501.12017 q 0,0.70312 -0.0391,1.15234 -0.0391,0.44922 -0.11719,0.70312 -0.0781,0.25391 -0.21485,0.35157 -0.11718,0.0976 -0.3125,0.0976 -0.15625,0 -0.35156,-0.0586 -0.19531,-0.0781 -0.44922,-0.15625 -0.23437,-0.0781 -0.52734,-0.13672 -0.29297,-0.0781 -0.64453,-0.0781 -0.41016,0 -0.82031,0.17578 -0.41016,0.15625 -0.85938,0.50781 -0.42969,0.35156 -0.91797,0.9375 -0.46875,0.58594 -1.01562,1.44531 v 10.85938 q 0,0.19531 -0.11719,0.35156 -0.11719,0.13672 -0.41016,0.23437 -0.27343,0.0977 -0.74218,0.13672 -0.46875,0.0586 -1.19141,0.0586 -0.72266,0 -1.19141,-0.0586 -0.46875,-0.0391 -0.76172,-0.13672 -0.27343,-0.0977 -0.39062,-0.23437 -0.11719,-0.15625 -0.11719,-0.35156 v -17.42188 q 0,-0.19531 0.0977,-0.33203 0.0976,-0.15625 0.35156,-0.25391 0.25391,-0.0977 0.64453,-0.13671 0.41016,-0.0586 1.01563,-0.0586 0.625,0 1.03515,0.0586 0.41016,0.0391 0.625,0.13671 0.23438,0.0977 0.33203,0.25391 0.0977,0.13672 0.0977,0.33203 v 2.16797 q 0.68359,-0.97656 1.28906,-1.60156 0.60547,-0.64453 1.15235,-1.01563 0.54687,-0.37109 1.09375,-0.50781 0.54687,-0.15625 1.09375,-0.15625 0.2539,0 0.54687,0.0391 0.29297,0.0195 0.60547,0.0977 0.3125,0.0586 0.54688,0.15625 0.23437,0.0781 0.33203,0.17578 0.11718,0.0977 0.15625,0.21484 0.0586,0.11719 0.0976,0.33204 0.0391,0.19531 0.0586,0.60546 0.0195,0.41016 0.0195,1.11329 z"
         style="font-style:normal;font-variant:normal;font-weight:bold;font-stretch:normal;font-family:Calibri;-inkscape-font-specification:'Calibri Bold';fill:#e6e6e6"
         id="path4625"
         inkscape:connector-curvature="0" />
      <path
         d="m 388.04687,492.85845 q 0,0.5664 -0.0391,0.91797 -0.0391,0.33203 -0.11719,0.52734 -0.0781,0.17578 -0.17578,0.25391 -0.0976,0.0586 -0.21484,0.0586 -0.13672,0 -0.3125,-0.0586 -0.15625,-0.0781 -0.41016,-0.15625 -0.23437,-0.0781 -0.5664,-0.13672 -0.33203,-0.0781 -0.78125,-0.0781 -0.52735,0 -0.91797,0.17578 -0.3711,0.15625 -0.625,0.52735 -0.25391,0.35156 -0.3711,0.9375 -0.11718,0.5664 -0.11718,1.40625 v 1.60156 h 3.18359 q 0.17578,0 0.3125,0.0977 0.15625,0.0977 0.25391,0.33203 0.0976,0.21484 0.13672,0.60547 0.0586,0.39062 0.0586,0.95703 0,1.07422 -0.19531,1.54297 -0.19532,0.44921 -0.56641,0.44921 h -3.18359 v 14.10157 q 0,0.19531 -0.11719,0.35156 -0.11719,0.13672 -0.39063,0.23437 -0.27343,0.0977 -0.76171,0.13672 -0.48829,0.0586 -1.19141,0.0586 -0.70313,0 -1.19141,-0.0586 -0.46875,-0.0391 -0.76172,-0.13672 -0.27343,-0.0977 -0.39062,-0.23437 -0.0977,-0.15625 -0.0977,-0.35156 v -14.10157 h -2.1875 q -0.37109,0 -0.5664,-0.44921 -0.17578,-0.46875 -0.17578,-1.54297 0,-0.56641 0.0391,-0.95703 0.0586,-0.39063 0.13672,-0.60547 0.0976,-0.23438 0.23437,-0.33203 0.15625,-0.0977 0.35156,-0.0977 h 2.16797 v -1.46484 q 0,-1.77735 0.35157,-3.10547 0.35156,-1.34766 1.09375,-2.22657 0.76171,-0.89843 1.91406,-1.34765 1.17187,-0.44922 2.7539,-0.44922 0.76172,0 1.44532,0.13672 0.68359,0.11719 1.07422,0.27344 0.39062,0.13671 0.52734,0.27343 0.13672,0.11719 0.21484,0.3711 0.0977,0.23437 0.13672,0.625 0.0391,0.37109 0.0391,0.9375 z"
         style="font-style:normal;font-variant:normal;font-weight:bold;font-stretch:normal;font-family:Calibri;-inkscape-font-specification:'Calibri Bold';fill:#e6e6e6"
         id="path4627"
         inkscape:connector-curvature="0" />
      <path
         d="m 405.58594,507.7022 q 0,0.89843 -0.41016,1.32812 -0.39062,0.42969 -1.09375,0.42969 h -10.60547 q 0,1.11328 0.25391,2.03125 0.27344,0.89844 0.83984,1.54297 0.58594,0.625 1.48438,0.95703 0.91797,0.33203 2.1875,0.33203 1.28906,0 2.26562,-0.17578 0.97656,-0.19531 1.67969,-0.41016 0.72266,-0.23437 1.19141,-0.41015 0.46875,-0.19532 0.76171,-0.19532 0.17579,0 0.29297,0.0781 0.11719,0.0586 0.19532,0.23437 0.0781,0.17579 0.0976,0.50782 0.0391,0.3125 0.0391,0.80078 0,0.42969 -0.0195,0.74219 -0.0195,0.29296 -0.0586,0.50781 -0.0391,0.21484 -0.11719,0.37109 -0.0781,0.13672 -0.21484,0.27344 -0.11719,0.13672 -0.6836,0.37109 -0.5664,0.23438 -1.44531,0.46875 -0.8789,0.21485 -2.01172,0.3711 -1.13281,0.17578 -2.42187,0.17578 -2.32422,0 -4.08203,-0.58594 -1.73828,-0.58594 -2.91016,-1.77734 -1.17187,-1.19141 -1.75781,-3.00782 -0.56641,-1.8164 -0.56641,-4.25781 0,-2.32422 0.60547,-4.17969 0.60547,-1.875 1.75781,-3.16406 1.15235,-1.30859 2.79297,-1.99219 1.66016,-0.68359 3.73047,-0.68359 2.1875,0 3.73047,0.64453 1.5625,0.64453 2.55859,1.79688 0.9961,1.13281 1.46485,2.69531 0.46875,1.5625 0.46875,3.39844 z m -4.76563,-1.40625 q 0.0586,-2.07032 -0.83984,-3.24219 -0.87891,-1.19141 -2.73438,-1.19141 -0.9375,0 -1.64062,0.35157 -0.6836,0.35156 -1.15235,0.95703 -0.44921,0.58593 -0.70312,1.40625 -0.23438,0.80078 -0.27344,1.71875 z"
         style="font-style:normal;font-variant:normal;font-weight:bold;font-stretch:normal;font-family:Calibri;-inkscape-font-specification:'Calibri Bold';fill:#e6e6e6"
         id="path4629"
         inkscape:connector-curvature="0" />
      <path
         d="m 422.83203,514.14751 q 0,0.50781 -0.0391,0.85937 -0.0195,0.33204 -0.0781,0.56641 -0.0391,0.23438 -0.11718,0.39063 -0.0586,0.13671 -0.29297,0.37109 -0.23438,0.21484 -0.80078,0.54687 -0.56641,0.3125 -1.28907,0.56641 -0.72265,0.25391 -1.58203,0.41016 -0.83984,0.15625 -1.73828,0.15625 -2.01172,0 -3.57422,-0.625 -1.54297,-0.625 -2.59765,-1.83594 -1.05469,-1.23047 -1.60157,-2.98828 -0.52734,-1.75781 -0.52734,-4.02344 0,-2.61719 0.64453,-4.51172 0.66406,-1.91406 1.83594,-3.16406 1.17187,-1.25 2.77344,-1.85547 1.60156,-0.60547 3.51562,-0.60547 0.78125,0 1.52344,0.13672 0.76172,0.13672 1.40625,0.37109 0.66406,0.23438 1.17187,0.52735 0.52735,0.29297 0.74219,0.50781 0.21484,0.21484 0.29297,0.37109 0.0977,0.13672 0.13672,0.3711 0.0586,0.23437 0.0781,0.58594 0.0391,0.33203 0.0391,0.82031 0,1.13281 -0.19532,1.60156 -0.19531,0.44922 -0.50781,0.44922 -0.33203,0 -0.70312,-0.27344 -0.3711,-0.27344 -0.87891,-0.60547 -0.50781,-0.33203 -1.21094,-0.60547 -0.70312,-0.27343 -1.67969,-0.27343 -1.91406,0 -2.92968,1.48437 -1.01563,1.46485 -1.01563,4.31641 0,1.40625 0.25391,2.48047 0.2539,1.07422 0.74219,1.79687 0.50781,0.72266 1.25,1.09375 0.76171,0.35156 1.75781,0.35156 1.01562,0 1.73828,-0.29296 0.74219,-0.3125 1.28906,-0.6836 0.54688,-0.37109 0.91797,-0.66406 0.37109,-0.3125 0.625,-0.3125 0.17578,0 0.29297,0.0977 0.11719,0.0976 0.17578,0.37109 0.0781,0.25391 0.11719,0.66406 0.0391,0.41016 0.0391,1.05469 z"
         style="font-style:normal;font-variant:normal;font-weight:bold;font-stretch:normal;font-family:Calibri;-inkscape-font-specification:'Calibri Bold';fill:#e6e6e6"
         id="path4631"
         inkscape:connector-curvature="0" />
      <path
         d="m 436.67969,515.2022 q 0,0.85937 -0.11719,1.32812 -0.0977,0.44922 -0.27344,0.64453 -0.17578,0.17578 -0.52734,0.33203 -0.33203,0.13672 -0.80078,0.23438 -0.44922,0.11719 -0.9961,0.17578 -0.52734,0.0586 -1.07422,0.0586 -1.46484,0 -2.53906,-0.37109 -1.07422,-0.37109 -1.77734,-1.13281 -0.70313,-0.78125 -1.03516,-1.95313 -0.33203,-1.17187 -0.33203,-2.77343 v -8.92579 h -2.08984 q -0.3711,0 -0.56641,-0.44921 -0.19531,-0.46875 -0.19531,-1.54297 0,-0.56641 0.0391,-0.95703 0.0586,-0.39063 0.15625,-0.60547 0.0977,-0.23438 0.23438,-0.33203 0.15625,-0.0977 0.35156,-0.0977 h 2.07031 v -3.88672 q 0,-0.19531 0.0977,-0.35156 0.11718,-0.15625 0.39062,-0.25391 0.29297,-0.11719 0.76172,-0.15625 0.48828,-0.0586 1.19141,-0.0586 0.72265,0 1.1914,0.0586 0.48828,0.0391 0.76172,0.15625 0.27344,0.0977 0.39063,0.25391 0.11718,0.15625 0.11718,0.35156 v 3.88672 h 3.78907 q 0.19531,0 0.33203,0.0977 0.15625,0.0977 0.2539,0.33203 0.0977,0.21484 0.13672,0.60547 0.0586,0.39062 0.0586,0.95703 0,1.07422 -0.19532,1.54297 -0.19531,0.44921 -0.5664,0.44921 h -3.8086 v 8.1836 q 0,1.42578 0.44922,2.14844 0.44922,0.70312 1.60157,0.70312 0.39062,0 0.70312,-0.0586 0.3125,-0.0781 0.54688,-0.15625 0.2539,-0.0977 0.41015,-0.15625 0.17578,-0.0781 0.3125,-0.0781 0.11719,0 0.21485,0.0781 0.11718,0.0586 0.17578,0.27343 0.0586,0.19532 0.0976,0.54688 0.0586,0.35156 0.0586,0.89844 z"
         style="font-style:normal;font-variant:normal;font-weight:bold;font-stretch:normal;font-family:Calibri;-inkscape-font-specification:'Calibri Bold';fill:#e6e6e6"
         id="path4633"
         inkscape:connector-curvature="0" />
      <path
         d="m 457.87109,499.98735 q 0,2.12891 -0.66406,3.76953 -0.66406,1.64063 -1.93359,2.77344 -1.26953,1.11328 -3.125,1.69922 -1.83594,0.58594 -4.33594,0.58594 h -2.10938 v 8.0664 q 0,0.19532 -0.13671,0.35157 -0.11719,0.15625 -0.41016,0.2539 -0.29297,0.0977 -0.78125,0.15625 -0.48828,0.0586 -1.25,0.0586 -0.74219,0 -1.25,-0.0586 -0.48828,-0.0586 -0.78125,-0.15625 -0.29297,-0.0977 -0.41016,-0.2539 -0.11718,-0.15625 -0.11718,-0.35157 v -22.73437 q 0,-0.91797 0.46875,-1.36719 0.48828,-0.46875 1.26953,-0.46875 h 5.95703 q 0.89844,0 1.69922,0.0781 0.82031,0.0586 1.95312,0.29297 1.13281,0.21484 2.28516,0.82031 1.17187,0.60547 1.99219,1.54297 0.82031,0.91797 1.25,2.16797 0.42968,1.23046 0.42968,2.77343 z m -5.37109,0.3711 q 0,-1.32813 -0.46875,-2.1875 -0.46875,-0.85938 -1.15234,-1.26953 -0.6836,-0.41016 -1.44532,-0.50782 -0.74218,-0.11718 -1.54297,-0.11718 h -2.1875 v 8.57421 h 2.30469 q 1.23047,0 2.05078,-0.33203 0.83985,-0.33203 1.36719,-0.91797 0.52734,-0.60546 0.80078,-1.42578 0.27344,-0.83984 0.27344,-1.8164 z"
         style="font-style:normal;font-variant:normal;font-weight:bold;font-stretch:normal;font-family:Calibri;-inkscape-font-specification:'Calibri Bold';fill:#e6e6e6"
         id="path4635"
         inkscape:connector-curvature="0" />
      <path
         d="m 475.66406,516.97954 q 0,0.27344 -0.19531,0.42969 -0.19531,0.15625 -0.625,0.21484 -0.41016,0.0781 -1.23047,0.0781 -0.87891,0 -1.28906,-0.0781 -0.39063,-0.0586 -0.56641,-0.21484 -0.15625,-0.15625 -0.15625,-0.42969 v -1.38672 q -1.07422,1.15235 -2.46094,1.79688 -1.36718,0.64453 -3.04687,0.64453 -1.38672,0 -2.55859,-0.3711 -1.15235,-0.35156 -2.01172,-1.05468 -0.83985,-0.72266 -1.3086,-1.77735 -0.46875,-1.05468 -0.46875,-2.46093 0,-1.52344 0.58594,-2.63672 0.60547,-1.13282 1.77734,-1.85547 1.19141,-0.74219 2.94922,-1.09375 1.75782,-0.35156 4.08203,-0.35156 h 1.69922 v -1.05469 q 0,-0.82031 -0.17578,-1.42578 -0.15625,-0.625 -0.54687,-1.03516 -0.3711,-0.41016 -1.01563,-0.60547 -0.625,-0.19531 -1.5625,-0.19531 -1.23047,0 -2.20703,0.27344 -0.95703,0.27343 -1.69922,0.60547 -0.74219,0.33203 -1.25,0.60546 -0.48828,0.27344 -0.80078,0.27344 -0.21484,0 -0.39062,-0.13672 -0.15625,-0.13672 -0.27344,-0.39062 -0.0977,-0.25391 -0.15625,-0.625 -0.0586,-0.3711 -0.0586,-0.82031 0,-0.60547 0.0977,-0.95704 0.0977,-0.35156 0.37109,-0.625 0.27344,-0.29296 0.95704,-0.625 0.68359,-0.35156 1.60156,-0.64453 0.91797,-0.29297 1.99219,-0.46875 1.09375,-0.19531 2.24609,-0.19531 2.05078,0 3.49609,0.41016 1.46485,0.39062 2.40235,1.23047 0.9375,0.82031 1.36718,2.1289 0.42969,1.3086 0.42969,3.10547 z m -4.82422,-7.46094 h -1.875 q -1.1914,0 -2.03125,0.17578 -0.83984,0.17579 -1.36718,0.52735 -0.52735,0.35156 -0.78125,0.85937 -0.23438,0.48828 -0.23438,1.13282 0,1.09375 0.68359,1.71875 0.70313,0.625 1.9336,0.625 1.03515,0 1.89453,-0.52735 0.87891,-0.52734 1.77734,-1.54297 z"
         style="font-style:normal;font-variant:normal;font-weight:bold;font-stretch:normal;font-family:Calibri;-inkscape-font-specification:'Calibri Bold';fill:#e6e6e6"
         id="path4637"
         inkscape:connector-curvature="0" />
      <path
         d="m 502.89062,515.2022 q 0,0.85937 -0.11718,1.30859 -0.0977,0.44922 -0.29297,0.64453 -0.17578,0.19531 -0.52735,0.33203 -0.33203,0.13672 -0.78125,0.25391 -0.44921,0.11719 -0.99609,0.17578 -0.52734,0.0586 -1.05469,0.0586 -1.48437,0 -2.55859,-0.37109 -1.07422,-0.37109 -1.77734,-1.13281 -0.70313,-0.78125 -1.03516,-1.95313 -0.33203,-1.17187 -0.33203,-2.77343 v -8.92579 h -7.48047 v 8.1836 q 0,1.42578 0.44922,2.14844 0.44922,0.70312 1.60156,0.70312 0.39063,0 0.70313,-0.0586 0.3125,-0.0781 0.54687,-0.15625 0.25391,-0.0977 0.41016,-0.15625 0.17578,-0.0781 0.3125,-0.0781 0.11718,0 0.21484,0.0781 0.11719,0.0586 0.17578,0.27343 0.0586,0.19532 0.0977,0.54688 0.0586,0.35156 0.0586,0.89844 0,0.54687 -0.0391,0.8789 -0.0195,0.3125 -0.0781,0.52735 -0.0391,0.21484 -0.11718,0.37109 -0.0586,0.13672 -0.21485,0.27344 -0.15625,0.11719 -0.48828,0.2539 -0.33203,0.13672 -0.78125,0.23438 -0.44922,0.11719 -0.99609,0.17578 -0.52735,0.0586 -1.07422,0.0586 -1.46484,0 -2.53906,-0.37109 -1.07422,-0.37109 -1.77735,-1.13281 -0.70312,-0.78125 -1.03515,-1.95313 -0.33203,-1.17187 -0.33203,-2.77343 v -8.92579 h -2.08985 q -0.37109,0 -0.5664,-0.44921 -0.19532,-0.46875 -0.19532,-1.54297 0,-0.56641 0.0391,-0.95703 0.0586,-0.39063 0.15625,-0.60547 0.0976,-0.23438 0.23437,-0.33203 0.15625,-0.0977 0.35156,-0.0977 h 2.07032 v -3.88672 q 0,-0.19531 0.0976,-0.35156 0.11719,-0.15625 0.39063,-0.25391 0.29297,-0.11719 0.76172,-0.15625 0.48828,-0.0586 1.1914,-0.0586 0.72266,0 1.19141,0.0586 0.48828,0.0391 0.76172,0.15625 0.27343,0.0977 0.39062,0.25391 0.11719,0.15625 0.11719,0.35156 v 3.88672 h 7.48047 v -4.82422 q 0,-0.19531 0.0976,-0.35156 0.11719,-0.15625 0.39063,-0.25391 0.29297,-0.0977 0.76172,-0.15625 0.48828,-0.0586 1.1914,-0.0586 0.72266,0 1.19141,0.0586 0.48828,0.0586 0.76172,0.15625 0.27344,0.0977 0.39062,0.25391 0.11719,0.15625 0.11719,0.35156 v 4.82422 h 3.78906 q 0.19532,0 0.33204,0.0977 0.13671,0.0977 0.23437,0.33203 0.11719,0.21484 0.15625,0.60547 0.0586,0.39062 0.0586,0.95703 0,1.07422 -0.21484,1.54297 -0.19531,0.44921 -0.54687,0.44921 h -3.8086 v 8.1836 q 0,1.42578 0.42969,2.14844 0.44922,0.70312 1.62109,0.70312 0.39063,0 0.70313,-0.0586 0.3125,-0.0781 0.54687,-0.15625 0.23438,-0.0977 0.41016,-0.15625 0.17578,-0.0781 0.3125,-0.0781 0.11719,0 0.21484,0.0781 0.0977,0.0586 0.15625,0.27343 0.0781,0.19532 0.11719,0.54688 0.0586,0.35156 0.0586,0.89844 z"
         style="font-style:normal;font-variant:normal;font-weight:bold;font-stretch:normal;font-family:Calibri;-inkscape-font-specification:'Calibri Bold';fill:#e6e6e6"
         id="path4639"
         inkscape:connector-curvature="0" />
      <path
         d="m 522.07031,507.7022 q 0,0.89843 -0.41015,1.32812 -0.39063,0.42969 -1.09375,0.42969 h -10.60547 q 0,1.11328 0.2539,2.03125 0.27344,0.89844 0.83985,1.54297 0.58593,0.625 1.48437,0.95703 0.91797,0.33203 2.1875,0.33203 1.28906,0 2.26563,-0.17578 0.97656,-0.19531 1.67968,-0.41016 0.72266,-0.23437 1.19141,-0.41015 0.46875,-0.19532 0.76172,-0.19532 0.17578,0 0.29297,0.0781 0.11719,0.0586 0.19531,0.23437 0.0781,0.17579 0.0977,0.50782 0.0391,0.3125 0.0391,0.80078 0,0.42969 -0.0195,0.74219 -0.0195,0.29296 -0.0586,0.50781 -0.0391,0.21484 -0.11718,0.37109 -0.0781,0.13672 -0.21485,0.27344 -0.11718,0.13672 -0.68359,0.37109 -0.56641,0.23438 -1.44531,0.46875 -0.87891,0.21485 -2.01172,0.3711 -1.13281,0.17578 -2.42188,0.17578 -2.32422,0 -4.08203,-0.58594 -1.73828,-0.58594 -2.91015,-1.77734 -1.17188,-1.19141 -1.75782,-3.00782 -0.5664,-1.8164 -0.5664,-4.25781 0,-2.32422 0.60547,-4.17969 0.60546,-1.875 1.75781,-3.16406 1.15234,-1.30859 2.79297,-1.99219 1.66015,-0.68359 3.73047,-0.68359 2.1875,0 3.73046,0.64453 1.5625,0.64453 2.5586,1.79688 0.99609,1.13281 1.46484,2.69531 0.46875,1.5625 0.46875,3.39844 z m -4.76562,-1.40625 q 0.0586,-2.07032 -0.83985,-3.24219 -0.8789,-1.19141 -2.73437,-1.19141 -0.9375,0 -1.64063,0.35157 -0.68359,0.35156 -1.15234,0.95703 -0.44922,0.58593 -0.70313,1.40625 -0.23437,0.80078 -0.27343,1.71875 z"
         style="font-style:normal;font-variant:normal;font-weight:bold;font-stretch:normal;font-family:Calibri;-inkscape-font-specification:'Calibri Bold';fill:#e6e6e6"
         id="path4641"
         inkscape:connector-curvature="0" />
      <path
         d="m 537.32422,501.12017 q 0,0.70312 -0.0391,1.15234 -0.0391,0.44922 -0.11719,0.70312 -0.0781,0.25391 -0.21485,0.35157 -0.11718,0.0976 -0.3125,0.0976 -0.15625,0 -0.35156,-0.0586 -0.19531,-0.0781 -0.44922,-0.15625 -0.23437,-0.0781 -0.52734,-0.13672 -0.29297,-0.0781 -0.64453,-0.0781 -0.41016,0 -0.82031,0.17578 -0.41016,0.15625 -0.85938,0.50781 -0.42969,0.35156 -0.91797,0.9375 -0.46875,0.58594 -1.01562,1.44531 v 10.85938 q 0,0.19531 -0.11719,0.35156 -0.11719,0.13672 -0.41016,0.23437 -0.27343,0.0977 -0.74218,0.13672 -0.46875,0.0586 -1.19141,0.0586 -0.72266,0 -1.19141,-0.0586 -0.46875,-0.0391 -0.76172,-0.13672 -0.27343,-0.0977 -0.39062,-0.23437 -0.11719,-0.15625 -0.11719,-0.35156 v -17.42188 q 0,-0.19531 0.0977,-0.33203 0.0977,-0.15625 0.35156,-0.25391 0.25391,-0.0977 0.64453,-0.13671 0.41016,-0.0586 1.01563,-0.0586 0.625,0 1.03515,0.0586 0.41016,0.0391 0.625,0.13671 0.23438,0.0977 0.33203,0.25391 0.0977,0.13672 0.0977,0.33203 v 2.16797 q 0.68359,-0.97656 1.28906,-1.60156 0.60547,-0.64453 1.15235,-1.01563 0.54687,-0.37109 1.09375,-0.50781 0.54687,-0.15625 1.09375,-0.15625 0.2539,0 0.54687,0.0391 0.29297,0.0195 0.60547,0.0977 0.3125,0.0586 0.54688,0.15625 0.23437,0.0781 0.33203,0.17578 0.11718,0.0977 0.15625,0.21484 0.0586,0.11719 0.0976,0.33204 0.0391,0.19531 0.0586,0.60546 0.0195,0.41016 0.0195,1.11329 z"
         style="font-style:normal;font-variant:normal;font-weight:bold;font-stretch:normal;font-family:Calibri;-inkscape-font-specification:'Calibri Bold';fill:#e6e6e6"
         id="path4643"
         inkscape:connector-curvature="0" />
      <path
         d="m 556.99219,516.92095 q 0,0.19531 -0.11719,0.35156 -0.11719,0.13672 -0.39063,0.23437 -0.27343,0.0977 -0.76171,0.13672 -0.46875,0.0586 -1.17188,0.0586 -0.72266,0 -1.21094,-0.0586 -0.46875,-0.0391 -0.74218,-0.13672 -0.27344,-0.0977 -0.39063,-0.23437 -0.11719,-0.15625 -0.11719,-0.35156 v -9.94141 q 0,-1.26953 -0.19531,-1.99219 -0.17578,-0.72265 -0.52734,-1.23047 -0.35157,-0.52734 -0.91797,-0.80078 -0.54688,-0.29297 -1.28906,-0.29297 -0.9375,0 -1.89454,0.6836 -0.95703,0.68359 -1.99218,1.99219 v 11.58203 q 0,0.19531 -0.11719,0.35156 -0.11719,0.13672 -0.41016,0.23437 -0.27343,0.0977 -0.74218,0.13672 -0.46875,0.0586 -1.19141,0.0586 -0.72266,0 -1.19141,-0.0586 -0.46875,-0.0391 -0.76172,-0.13672 -0.27343,-0.0977 -0.39062,-0.23437 -0.11719,-0.15625 -0.11719,-0.35156 v -17.42188 q 0,-0.19531 0.0977,-0.33203 0.0977,-0.15625 0.35156,-0.25391 0.25391,-0.0977 0.64453,-0.13671 0.41016,-0.0586 1.01563,-0.0586 0.625,0 1.03515,0.0586 0.41016,0.0391 0.625,0.13671 0.23438,0.0977 0.33203,0.25391 0.0977,0.13672 0.0977,0.33203 v 2.01172 q 1.44531,-1.5625 2.92969,-2.34375 1.5039,-0.78125 3.125,-0.78125 1.77734,0 2.98828,0.58594 1.23047,0.58594 1.97266,1.60156 0.76171,0.99609 1.09375,2.34375 0.33203,1.34766 0.33203,3.24219 z"
         style="font-style:normal;font-variant:normal;font-weight:bold;font-stretch:normal;font-family:Calibri;-inkscape-font-specification:'Calibri Bold';fill:#e6e6e6"
         id="path4645"
         inkscape:connector-curvature="0" />
    </g>
    <path
       id="path4498"
       d="m 30.650628,33.408591 c 0,0.283793 -0.04227,0.543433 -0.132839,0.772882 -0.09057,0.22945 -0.217373,0.42267 -0.386441,0.5857 -0.169068,0.16303 -0.374364,0.283792 -0.61589,0.374365 -0.241526,0.09057 -0.531356,0.132839 -0.869492,0.132839 h -0.61589 v 2.052967 c 0,0.02415 -0.006,0.04227 -0.01812,0.06038 -0.01208,0.01811 -0.03019,0.03019 -0.06038,0.04227 -0.02415,0.01208 -0.06038,0.01811 -0.108687,0.02415 -0.0483,0.006 -0.102648,0.01208 -0.175106,0.01208 -0.07246,0 -0.126801,-0.006 -0.175106,-0.01208 -0.04831,-0.006 -0.08453,-0.01811 -0.108686,-0.02415 -0.03019,-0.01208 -0.04831,-0.02415 -0.06038,-0.04227 -0.01208,-0.01812 -0.01811,-0.03623 -0.01811,-0.06038 v -5.265258 c 0,-0.114725 0.03019,-0.199258 0.09057,-0.253602 0.06038,-0.0483 0.126801,-0.07246 0.199258,-0.07246 h 1.165361 c 0.120763,0 0.22945,0.006 0.338136,0.01811 0.108687,0.01208 0.235488,0.03019 0.380403,0.06642 0.144915,0.03623 0.295869,0.09661 0.452861,0.187182 0.150953,0.09057 0.283792,0.205297 0.392479,0.344174 0.108686,0.132839 0.187182,0.289831 0.247563,0.470975 0.06038,0.175106 0.08453,0.374364 0.08453,0.585699 z m -0.760805,0.06038 v 0 c 0,-0.22945 -0.04227,-0.428708 -0.126801,-0.579662 -0.08453,-0.156991 -0.187183,-0.271716 -0.307945,-0.350212 -0.120763,-0.0785 -0.247564,-0.126801 -0.380403,-0.144915 -0.132839,-0.01812 -0.25964,-0.03019 -0.380403,-0.03019 h -0.670234 v 2.288455 h 0.652119 c 0.217374,0 0.398518,-0.03019 0.543433,-0.09057 0.144915,-0.06038 0.265678,-0.138877 0.362288,-0.247564 0.09661,-0.102648 0.175107,-0.229449 0.223412,-0.374364 0.04831,-0.144916 0.0785,-0.301907 0.0785,-0.470975 z"
       class="fil0"
       inkscape:connector-curvature="0"
       style="clip-rule:evenodd;fill:#ececec;fill-rule:nonzero;stroke-width:0.00603814;image-rendering:optimizeQuality;shape-rendering:geometricPrecision;text-rendering:geometricPrecision;fill-opacity:1" />
    <polygon
       id="polygon4502"
       points="2133,1038 2133,0 0,0 0,1038 "
       class="fil1"
       style="clip-rule:evenodd;fill:#8cb035;fill-rule:nonzero;image-rendering:optimizeQuality;shape-rendering:geometricPrecision;text-rendering:geometricPrecision"
       transform="matrix(0.00603814,0,0,0.00603814,23.996598,14.285802)" />
    <polygon
       id="polygon4506"
       points="0,2256 983,2256 983,1212 0,1212 "
       class="fil2"
       style="clip-rule:evenodd;fill:#a2c858;fill-rule:nonzero;image-rendering:optimizeQuality;shape-rendering:geometricPrecision;text-rendering:geometricPrecision"
       transform="matrix(0.00603814,0,0,0.00603814,23.996598,14.285802)" />
    <polygon
       id="polygon4510"
       points="3914,1884 3914,4118 2923,4118 2923,1884 "
       class="fil3"
       style="clip-rule:evenodd;fill:#d1de85;fill-rule:nonzero;image-rendering:optimizeQuality;shape-rendering:geometricPrecision;text-rendering:geometricPrecision"
       transform="matrix(0.00603814,0,0,0.00603814,23.996598,14.285802)" />
    <polygon
       id="polygon4514"
       points="1759,3089 2756,3089 2756,4118 1759,4118 "
       class="fil1"
       style="clip-rule:evenodd;fill:#8cb035;fill-rule:nonzero;image-rendering:optimizeQuality;shape-rendering:geometricPrecision;text-rendering:geometricPrecision"
       transform="matrix(0.00603814,0,0,0.00603814,23.996598,14.285802)" />
    <path
       style="clip-rule:evenodd;fill:#ffffff;fill-rule:nonzero;stroke-width:0.00603814;image-rendering:optimizeQuality;shape-rendering:geometricPrecision;text-rendering:geometricPrecision"
       inkscape:connector-curvature="0"
       class="fil2"
       d="M 33.615355,39.168977 H 23.996598 V 28.96452 h 6.943861 V 21.610066 H 37.88432 V 14.29184 h 9.745558 v 10.204457 h -7.070662 v 7.318225 h -6.943861 z m -9.232316,-0.380403 v 0 h 8.851913 V 31.43412 h 6.943861 v -7.318226 h 7.070662 v -9.437613 h -8.978714 v 7.324264 H 31.3269 v 7.354454 h -6.943861 v 9.437613 z"
       id="path4519" />
    <path
       id="path4522"
       d="m 37.594489,26.054137 c 0,0.283792 -0.04831,0.543432 -0.132839,0.772882 -0.09057,0.229449 -0.217373,0.42267 -0.386441,0.585699 -0.169068,0.16303 -0.374364,0.283793 -0.61589,0.374365 -0.241526,0.09057 -0.531356,0.132839 -0.869492,0.132839 h -0.61589 v 2.052968 c 0,0.02415 -0.006,0.04227 -0.01812,0.06038 -0.01208,0.01812 -0.03019,0.03019 -0.06038,0.04227 -0.02415,0.01208 -0.06038,0.01811 -0.108687,0.02415 -0.0483,0.006 -0.102648,0.01208 -0.175106,0.01208 -0.07246,0 -0.126801,-0.006 -0.175106,-0.01208 -0.04831,-0.006 -0.08453,-0.01812 -0.114725,-0.02415 -0.03019,-0.01208 -0.04831,-0.02415 -0.06038,-0.04227 -0.01208,-0.01811 -0.01811,-0.03623 -0.01811,-0.06038 v -5.265258 c 0,-0.114725 0.03019,-0.199259 0.09057,-0.253602 0.06038,-0.0483 0.126801,-0.07246 0.199258,-0.07246 h 1.165361 c 0.114725,0 0.22945,0.006 0.338136,0.01812 0.108687,0.01208 0.235488,0.03019 0.380403,0.06642 0.144915,0.03623 0.295869,0.09661 0.45286,0.187182 0.150954,0.09057 0.283793,0.205297 0.39248,0.344174 0.108686,0.132839 0.187182,0.289831 0.247563,0.470975 0.06038,0.175106 0.08453,0.374365 0.08453,0.5857 z m -0.760805,0.06038 v 0 c 0,-0.229449 -0.04227,-0.428708 -0.126801,-0.579661 -0.08453,-0.156992 -0.187183,-0.271716 -0.307945,-0.350212 -0.120763,-0.0785 -0.247564,-0.126801 -0.380403,-0.144916 -0.132839,-0.01811 -0.25964,-0.03019 -0.380403,-0.03019 h -0.670234 v 2.288455 h 0.652119 c 0.217374,0 0.398518,-0.03019 0.543433,-0.09057 0.144915,-0.06038 0.265678,-0.138878 0.362288,-0.247564 0.09661,-0.102649 0.175107,-0.229449 0.223412,-0.374365 0.0483,-0.144915 0.07849,-0.301907 0.07849,-0.470975 z"
       class="fil0"
       inkscape:connector-curvature="0"
       style="clip-rule:evenodd;fill:#ececec;fill-rule:nonzero;stroke-width:0.00603814;image-rendering:optimizeQuality;shape-rendering:geometricPrecision;text-rendering:geometricPrecision;fill-opacity:1" />
    <path
       id="path4526"
       d="m 44.598732,18.729873 c 0,0.283793 -0.04227,0.543433 -0.132839,0.772882 -0.09057,0.229449 -0.217373,0.42267 -0.386441,0.5857 -0.169068,0.163029 -0.374365,0.283792 -0.615891,0.374364 -0.241525,0.09057 -0.531356,0.132839 -0.869492,0.132839 h -0.61589 v 2.052968 c 0,0.02415 -0.006,0.04227 -0.01811,0.06038 -0.01208,0.01812 -0.03019,0.03019 -0.06038,0.04227 -0.02415,0.01208 -0.06038,0.01812 -0.108686,0.02415 -0.04831,0.006 -0.102649,0.01208 -0.175106,0.01208 -0.07246,0 -0.126801,-0.006 -0.175107,-0.01208 -0.0483,-0.006 -0.08453,-0.01812 -0.108686,-0.02415 -0.03019,-0.01208 -0.0483,-0.02415 -0.06038,-0.04227 -0.01208,-0.01811 -0.01812,-0.03623 -0.01812,-0.06038 v -5.265258 c 0,-0.114725 0.03019,-0.199259 0.09057,-0.253602 0.06038,-0.0483 0.126801,-0.07246 0.199259,-0.07246 h 1.165361 c 0.120763,0 0.229449,0.006 0.338136,0.01812 0.108686,0.01208 0.235487,0.03019 0.380403,0.06642 0.144915,0.03623 0.295868,0.09661 0.45286,0.187183 0.150954,0.09057 0.283793,0.205296 0.392479,0.344174 0.108687,0.132839 0.187182,0.28983 0.247564,0.470974 0.06038,0.175107 0.08453,0.374365 0.08453,0.5857 z m -0.760806,0.06038 v 0 c 0,-0.229449 -0.04227,-0.428708 -0.126801,-0.579661 -0.08453,-0.156992 -0.187182,-0.271716 -0.307945,-0.350212 -0.120763,-0.0785 -0.247564,-0.126801 -0.380403,-0.144915 -0.132839,-0.01811 -0.25964,-0.03019 -0.380403,-0.03019 h -0.670233 v 2.288455 h 0.652119 c 0.217373,0 0.398517,-0.03019 0.543432,-0.09057 0.144916,-0.06038 0.265679,-0.138877 0.362289,-0.247564 0.09661,-0.102648 0.175106,-0.229449 0.223411,-0.374365 0.0483,-0.144915 0.0785,-0.301907 0.0785,-0.470975 z"
       class="fil0"
       inkscape:connector-curvature="0"
       style="clip-rule:evenodd;fill:#ececec;fill-rule:nonzero;stroke-width:0.00603814;image-rendering:optimizeQuality;shape-rendering:geometricPrecision;text-rendering:geometricPrecision;fill-opacity:1" />
  </g>
</svg>
